# Blender v2.79 (sub 0) OBJ File: 'Gutter.blend'
# www.blender.org
mtllib Gutter.mtl
o Cylinder
v 0.000000 -0.200000 -0.200000
v 0.000000 -0.200000 0.200000
v -0.076537 -0.184776 -0.200000
v -0.076537 -0.184776 0.200000
v -0.141421 -0.141421 -0.200000
v -0.141421 -0.141421 0.200000
v -0.184776 -0.076537 -0.200000
v -0.184776 -0.076537 0.200000
v -0.200000 -0.000000 -0.200000
v -0.200000 -0.000000 0.200000
v 0.200000 0.000000 -0.200000
v 0.200000 0.000000 0.200000
v 0.184776 -0.076537 -0.200000
v 0.184776 -0.076537 0.200000
v 0.141421 -0.141421 -0.200000
v 0.141421 -0.141421 0.200000
v 0.076537 -0.184776 -0.200000
v 0.076537 -0.184776 0.200000
v 0.166298 -0.068883 0.200000
v 0.166298 -0.068883 -0.200000
v 0.180000 0.000000 0.200000
v 0.180000 0.000000 -0.200000
v -0.180000 -0.000000 0.200000
v -0.180000 -0.000000 -0.200000
v -0.166298 -0.068883 0.200000
v -0.166298 -0.068883 -0.200000
v -0.127279 -0.127279 0.200000
v -0.127279 -0.127279 -0.200000
v 0.068883 -0.166298 0.200000
v 0.068883 -0.166298 -0.200000
v 0.000000 -0.180000 0.200000
v 0.000000 -0.180000 -0.200000
v 0.127279 -0.127279 0.200000
v 0.127279 -0.127279 -0.200000
v -0.068883 -0.166298 0.200000
v -0.068883 -0.166298 -0.200000
v 0.128361 -0.128361 0.200000
vn -0.1951 -0.9808 -0.0000
vn -0.5556 -0.8315 -0.0000
vn 0.6820 0.6584 -0.3183
vn -0.0000 0.0000 -1.0000
vn -0.9808 -0.1951 -0.0000
vn 0.0000 -0.0000 1.0000
vn 0.5556 -0.8315 -0.0000
vn 0.1951 -0.9808 -0.0000
vn 0.9808 -0.1951 -0.0000
vn 0.8315 0.5556 0.0000
vn 0.9808 0.1951 0.0000
vn 0.1951 0.9808 0.0000
vn -0.1951 0.9808 0.0000
vn -0.8315 0.5556 0.0000
vn 0.8315 -0.5556 -0.0000
vn -0.8315 -0.5556 -0.0000
vn -0.0000 1.0000 0.0000
vn 0.5556 0.8315 0.0000
vn -0.9808 0.1951 0.0000
vn -0.5556 0.8315 0.0000
usemtl None
s off
f 1//1 2//1 4//1 3//1
f 3//2 4//2 6//2 5//2
f 16//3 33//3 37//3
f 32//4 30//4 17//4 1//4
f 1//4 3//4 36//4 32//4
f 7//5 8//5 10//5 9//5
f 4//6 35//6 27//6 25//6 8//6 6//6
f 15//7 16//7 18//7 17//7
f 17//8 18//8 2//8 1//8
f 14//9 13//9 11//9 12//9
f 27//10 28//10 26//10 25//10
f 30//4 34//4 15//4 17//4
f 23//11 25//11 26//11 24//11
f 31//12 32//12 36//12 35//12
f 29//13 30//13 32//13 31//13
f 19//14 20//14 34//14 33//14
f 16//15 15//15 13//15 14//15
f 36//4 3//4 5//4 28//4
f 28//4 5//4 7//4 26//4
f 26//4 7//4 9//4 24//4
f 8//6 25//6 23//6 10//6
f 5//16 6//16 8//16 7//16
f 10//17 23//17 24//17 9//17
f 19//6 14//6 12//6 21//6
f 33//6 16//6 14//6 19//6
f 28//18 27//18 35//18 36//18
f 11//4 13//4 20//4 22//4
f 20//4 13//4 15//4 34//4
f 22//19 20//19 19//19 21//19
f 21//17 12//17 11//17 22//17
f 33//6 29//6 18//6 16//6 37//6
f 29//6 31//6 2//6 18//6
f 31//6 35//6 4//6 2//6
f 33//20 34//20 30//20 29//20
